ModelForces
version=1
nRows=4
nColumns=202
inDegrees=no

This file contains the forces exerted on a model during a simulation.

A force is a generalized force, meaning that it can be either a force (N) or a torque (Nm).

Units are S.I. units (second, meters, Newtons, ...)
Angles are in degrees.

endheader
time	glut_med1_r	glut_med2_r	glut_med3_r	glut_min1_r	glut_min2_r	glut_min3_r	semimem_r	semiten_r	bifemlh_r	bifemsh_r	sar_r	add_long_r	add_brev_r	add_mag1_r	add_mag2_r	add_mag3_r	tfl_r	pect_r	grac_r	glut_max1_r	glut_max2_r	glut_max3_r	iliacus_r	psoas_r	quad_fem_r	gem_r	peri_r	rect_fem_r	vas_med_r	vas_int_r	vas_lat_r	med_gas_r	lat_gas_r	soleus_r	tib_post_r	flex_dig_r	flex_hal_r	tib_ant_r	per_brev_r	per_long_r	per_tert_r	ext_dig_r	ext_hal_r	glut_med1_l	glut_med2_l	glut_med3_l	glut_min1_l	glut_min2_l	glut_min3_l	semimem_l	semiten_l	bifemlh_l	bifemsh_l	sar_l	add_long_l	add_brev_l	add_mag1_l	add_mag2_l	add_mag3_l	tfl_l	pect_l	grac_l	glut_max1_l	glut_max2_l	glut_max3_l	iliacus_l	psoas_l	quad_fem_l	gem_l	peri_l	rect_fem_l	vas_med_l	vas_int_l	vas_lat_l	med_gas_l	lat_gas_l	soleus_l	tib_post_l	flex_dig_l	flex_hal_l	tib_ant_l	per_brev_l	per_long_l	per_tert_l	ext_dig_l	ext_hal_l	ercspn_r	ercspn_l	intobl_r	intobl_l	extobl_r	extobl_l	femur_lat_meniscii_l.femur_lat_l.force.X	femur_lat_meniscii_l.femur_lat_l.force.Y	femur_lat_meniscii_l.femur_lat_l.force.Z	femur_lat_meniscii_l.femur_lat_l.torque.X	femur_lat_meniscii_l.femur_lat_l.torque.Y	femur_lat_meniscii_l.femur_lat_l.torque.Z	femur_lat_meniscii_l.meniscus_lat_l.force.X	femur_lat_meniscii_l.meniscus_lat_l.force.Y	femur_lat_meniscii_l.meniscus_lat_l.force.Z	femur_lat_meniscii_l.meniscus_lat_l.torque.X	femur_lat_meniscii_l.meniscus_lat_l.torque.Y	femur_lat_meniscii_l.meniscus_lat_l.torque.Z	femur_med_meniscii_l.femur_med_l.force.X	femur_med_meniscii_l.femur_med_l.force.Y	femur_med_meniscii_l.femur_med_l.force.Z	femur_med_meniscii_l.femur_med_l.torque.X	femur_med_meniscii_l.femur_med_l.torque.Y	femur_med_meniscii_l.femur_med_l.torque.Z	femur_med_meniscii_l.meniscus_med_l.force.X	femur_med_meniscii_l.meniscus_med_l.force.Y	femur_med_meniscii_l.meniscus_med_l.force.Z	femur_med_meniscii_l.meniscus_med_l.torque.X	femur_med_meniscii_l.meniscus_med_l.torque.Y	femur_med_meniscii_l.meniscus_med_l.torque.Z	femur_lat_meniscii_r.femur_lat_r.force.X	femur_lat_meniscii_r.femur_lat_r.force.Y	femur_lat_meniscii_r.femur_lat_r.force.Z	femur_lat_meniscii_r.femur_lat_r.torque.X	femur_lat_meniscii_r.femur_lat_r.torque.Y	femur_lat_meniscii_r.femur_lat_r.torque.Z	femur_lat_meniscii_r.meniscus_lat_r.force.X	femur_lat_meniscii_r.meniscus_lat_r.force.Y	femur_lat_meniscii_r.meniscus_lat_r.force.Z	femur_lat_meniscii_r.meniscus_lat_r.torque.X	femur_lat_meniscii_r.meniscus_lat_r.torque.Y	femur_lat_meniscii_r.meniscus_lat_r.torque.Z	femur_med_meniscii_r.femur_med_r.force.X	femur_med_meniscii_r.femur_med_r.force.Y	femur_med_meniscii_r.femur_med_r.force.Z	femur_med_meniscii_r.femur_med_r.torque.X	femur_med_meniscii_r.femur_med_r.torque.Y	femur_med_meniscii_r.femur_med_r.torque.Z	femur_med_meniscii_r.meniscus_med_r.force.X	femur_med_meniscii_r.meniscus_med_r.force.Y	femur_med_meniscii_r.meniscus_med_r.force.Z	femur_med_meniscii_r.meniscus_med_r.torque.X	femur_med_meniscii_r.meniscus_med_r.torque.Y	femur_med_meniscii_r.meniscus_med_r.torque.Z	femur_med_tibia_l.tibia_upper_l.force.X	femur_med_tibia_l.tibia_upper_l.force.Y	femur_med_tibia_l.tibia_upper_l.force.Z	femur_med_tibia_l.tibia_upper_l.torque.X	femur_med_tibia_l.tibia_upper_l.torque.Y	femur_med_tibia_l.tibia_upper_l.torque.Z	femur_med_tibia_l.femur_med_l.force.X	femur_med_tibia_l.femur_med_l.force.Y	femur_med_tibia_l.femur_med_l.force.Z	femur_med_tibia_l.femur_med_l.torque.X	femur_med_tibia_l.femur_med_l.torque.Y	femur_med_tibia_l.femur_med_l.torque.Z	femur_lat_tibia_l.tibia_upper_l.force.X	femur_lat_tibia_l.tibia_upper_l.force.Y	femur_lat_tibia_l.tibia_upper_l.force.Z	femur_lat_tibia_l.tibia_upper_l.torque.X	femur_lat_tibia_l.tibia_upper_l.torque.Y	femur_lat_tibia_l.tibia_upper_l.torque.Z	femur_lat_tibia_l.femur_lat_l.force.X	femur_lat_tibia_l.femur_lat_l.force.Y	femur_lat_tibia_l.femur_lat_l.force.Z	femur_lat_tibia_l.femur_lat_l.torque.X	femur_lat_tibia_l.femur_lat_l.torque.Y	femur_lat_tibia_l.femur_lat_l.torque.Z	femur_med_tibia_r.tibia_upper_r.force.X	femur_med_tibia_r.tibia_upper_r.force.Y	femur_med_tibia_r.tibia_upper_r.force.Z	femur_med_tibia_r.tibia_upper_r.torque.X	femur_med_tibia_r.tibia_upper_r.torque.Y	femur_med_tibia_r.tibia_upper_r.torque.Z	femur_med_tibia_r.femur_med_r.force.X	femur_med_tibia_r.femur_med_r.force.Y	femur_med_tibia_r.femur_med_r.force.Z	femur_med_tibia_r.femur_med_r.torque.X	femur_med_tibia_r.femur_med_r.torque.Y	femur_med_tibia_r.femur_med_r.torque.Z	femur_lat_tibia_r.tibia_upper_r.force.X	femur_lat_tibia_r.tibia_upper_r.force.Y	femur_lat_tibia_r.tibia_upper_r.force.Z	femur_lat_tibia_r.tibia_upper_r.torque.X	femur_lat_tibia_r.tibia_upper_r.torque.Y	femur_lat_tibia_r.tibia_upper_r.torque.Z	femur_lat_tibia_r.femur_lat_r.force.X	femur_lat_tibia_r.femur_lat_r.force.Y	femur_lat_tibia_r.femur_lat_r.force.Z	femur_lat_tibia_r.femur_lat_r.torque.X	femur_lat_tibia_r.femur_lat_r.torque.Y	femur_lat_tibia_r.femur_lat_r.torque.Z	aACL_R	pACL_R	aPCL_R	pPCL_R	aMCL_R	aLCL_R	aPCL_L	pPCL_L	aMCL_L	aLCL_L	ground_prescribedForce_0_fx	ground_prescribedForce_0_fy	ground_prescribedForce_0_fz
      0.48001678	      7.61081166	      5.70906067	      6.11165032	      2.67839402	      3.19999381	      3.21927738	      8.47845932	      4.62912832	      7.95007618	      7.24750986	      2.00260590	      5.65668950	      4.17109003	      2.94107092	      2.47278527	      4.02178125	      4.62919518	      2.25520114	      1.68635924	      3.68399648	      5.59856632	      4.17977358	     22.72612732	     13.05515341	      3.65379386	      2.86700929	      4.14077358	     13.94003057	     12.20101647	     12.38782397	     16.24364449	      3.14246964	      1.62464593	      8.98061318	     12.34172453	      2.64152199	      2.53177776	     14.48831890	      3.53982253	      7.09766618	     10.82694302	      8.27865113	      2.09799232	      7.61081166	      5.70906067	      6.11165032	      2.67839402	      3.19999381	      3.21927738	      8.83685330	      4.11691365	      7.75909990	      7.27001370	      1.53081391	      5.65668950	      4.17109003	      2.94107092	      2.47278527	      4.02178125	      4.11824749	      2.25520114	      1.57025433	      3.68399648	      5.59856632	      4.17977358	     22.72612732	     13.05515341	      3.65379386	      2.86700929	      4.14077358	     10.77093248	      6.64422907	      7.62260895	      8.19603313	     14.18250152	      6.58544297	     31.47158827	     42.50988186	      2.78123174	      2.95350815	      8.52986929	      4.38086388	     12.56033036	      2.01958294	      5.32954610	      1.69279763	     25.19000808	     25.19000808	      9.07206530	      9.07206530	     26.86934170	     26.86934170	      2.76307435	     50.99597937	     -9.56042239	      5.21997485	     -0.02578839	      1.48581788	     -2.76307435	    -50.99597937	      9.56042239	     -1.74637766	      0.02558040	     -0.48301696	     -3.31599387	     20.97615968	     -3.40468921	      0.94473225	     -0.02138609	     -1.00501789	      3.31599387	    -20.97615968	      3.40468921	      0.28075727	      0.00368718	     -0.29758878	     87.98693469	    155.75985773	     30.76799949	    -16.61938098	      2.12065578	     36.83761869	    -87.98693469	   -155.75985773	    -30.76799949	      5.67673282	     -2.98799949	     -1.15420019	     44.14046435	     42.34302606	     -5.74436893	      3.14581682	     -0.80076071	     18.29168502	    -44.14046435	    -42.34302606	      5.74436893	     -0.65510720	      0.58302028	     -0.75776760	      0.00000000	      0.00000000	      0.00000000	      0.00000000	      0.00000000	      0.00000000	      0.00000000	      0.00000000	      0.00000000	      0.00000000	      0.00000000	      0.00000000	      0.00000000	      0.00000000	      0.00000000	      0.00000000	      0.00000000	      0.00000000	      0.00000000	      0.00000000	      0.00000000	      0.00000000	      0.00000000	      0.00000000	      0.00000000	      0.00000000	      0.00000000	      0.00000000	      0.00000000	      0.00000000	      0.00000000	      0.00000000	      0.00000000	      0.00000000	      0.00000000	      0.00000000	      0.00000000	      0.00000000	      0.00000000	      0.00000000	      0.00000000	      0.00000000	      0.00000000	      0.00000000	      0.00000000	      0.00000000	      0.00000000	      0.00000000	     16.43962086	     27.59897865	      0.00000000	      9.86346547	      8.81948289	     96.92558912	      0.00000000	      0.00000000	      0.00000001	      0.00000000	    103.36618800	    -37.62220000	      0.00000000
      0.48157168	      7.60951661	      5.70816867	      6.11068357	      2.67799327	      3.19956030	      3.21873070	      8.45853681	      4.61925761	      7.93371829	      7.24600331	      1.70978089	      5.65579537	      4.17047170	      2.94061476	      2.47239260	      4.02107386	      4.62674602	      2.25486159	      1.68613093	      3.68342134	      5.59768961	      4.17910705	     22.72450976	     13.05333403	      3.65323530	      2.86674775	      4.13973760	     13.90521617	     12.17506565	     12.35743839	     16.19971174	      3.14111398	      1.62800685	      8.99166682	     12.36163950	      2.67780685	      2.52592209	     14.51936955	      3.52479160	      7.08700252	     10.82767018	      8.19090659	      2.10158655	      7.60951661	      5.70816867	      6.11068357	      2.67799327	      3.19956030	      3.21873070	      8.83496807	      4.11621982	      7.75753082	      7.26890165	      1.53058590	      5.65579537	      4.17047170	      2.94061476	      2.47239260	      4.02107386	      4.11780994	      2.25486159	      1.57001641	      3.68342134	      5.59768961	      4.17910705	     22.72450976	     13.05333403	      3.65323530	      2.86674775	      4.13973760	     10.76879680	      6.64316721	      7.62136720	      8.19470471	     14.17794782	      6.58332534	     31.46373171	     42.50680019	      2.77980651	      2.95246778	      8.52826196	      4.37990171	     12.55802805	      2.01930073	      5.32875667	      1.69257046	     25.18623057	     25.18623057	      9.07058381	      9.07058381	     26.86801095	     26.86801095	      2.76307435	     50.99597937	     -9.56042239	      5.21997485	     -0.02578839	      1.48581788	     -2.76307435	    -50.99597937	      9.56042239	     -1.74637766	      0.02558040	     -0.48301696	     -3.31599387	     20.97615968	     -3.40468921	      0.94473225	     -0.02138609	     -1.00501789	      3.31599387	    -20.97615968	      3.40468921	      0.28075727	      0.00368718	     -0.29758878	     87.44151928	    156.30386433	     31.09901014	    -16.77130970	      2.11017652	     36.60881057	    -87.44151928	   -156.30386433	    -31.09901014	      5.70349957	     -2.97789844	     -1.12811790	     43.00480512	     41.69270006	     -5.55830221	      3.05827629	     -0.78097414	     17.81826592	    -43.00480512	    -41.69270006	      5.55830221	     -0.64366244	      0.56851549	     -0.72995018	      0.00000000	      0.00000000	      0.00000000	      0.00000000	      0.00000000	      0.00000000	      0.00000000	      0.00000000	      0.00000000	      0.00000000	      0.00000000	      0.00000000	      0.00000000	      0.00000000	      0.00000000	      0.00000000	      0.00000000	      0.00000000	      0.00000000	      0.00000000	      0.00000000	      0.00000000	      0.00000000	      0.00000000	      0.00000000	      0.00000000	      0.00000000	      0.00000000	      0.00000000	      0.00000000	      0.00000000	      0.00000000	      0.00000000	      0.00000000	      0.00000000	      0.00000000	      0.00000000	      0.00000000	      0.00000000	      0.00000000	      0.00000000	      0.00000000	      0.00000000	      0.00000000	      0.00000000	      0.00000000	      0.00000000	      0.00000000	     16.54944435	     27.87737972	      0.00000000	      9.86127262	      8.74259715	     96.85699628	      0.00000000	      0.00000000	      0.00000001	      0.00000000	    103.36618800	    -37.62220000	      0.00000000
      0.48440112	      7.60722561	      5.70659067	      6.10897333	      2.67728434	      3.19879339	      3.21776362	      8.43000095	      4.60550930	      7.90751176	      7.23789546	      1.62788973	      5.65421361	      4.16937773	      2.93980778	      2.47169794	      4.01982247	      4.62281531	      2.25426088	      1.68523247	      3.68240388	      5.59613867	      4.17792793	     22.72164823	     13.05011552	      3.65224718	      2.86628509	      4.13790425	     13.85110799	     12.16147739	     12.33229222	     16.16505172	      3.13232202	      1.63120508	      9.00193494	     12.40236635	      2.74281994	      2.51380983	     14.57481325	      3.50024565	      7.06720201	     10.83731045	      8.04163214	      2.11151662	      7.60722561	      5.70659067	      6.10897333	      2.67728434	      3.19879339	      3.21776362	      8.83163283	      4.11499240	      7.75475498	      7.26693436	      1.53018256	      5.65421361	      4.16937773	      2.93980778	      2.47169794	      4.01982247	      4.11703592	      2.25426088	      1.56959551	      3.68240388	      5.59613867	      4.17792793	     22.72164823	     13.05011552	      3.65224718	      2.86628509	      4.13790425	     10.76501863	      6.64128872	      7.61917050	      8.19235470	     14.16988038	      6.57957367	     31.44982848	     42.50134759	      2.77723947	      2.95060239	      8.52541853	      4.37819942	     12.55395231	      2.01880148	      5.32738992	      1.69217774	     25.17954800	     25.17954800	      9.06796300	      9.06796300	     26.86565679	     26.86565679	      2.76307435	     50.99597937	     -9.56042239	      5.21997485	     -0.02578839	      1.48581788	     -2.76307435	    -50.99597937	      9.56042239	     -1.74637766	      0.02558040	     -0.48301696	     -3.31599387	     20.97615968	     -3.40468921	      0.94473225	     -0.02138609	     -1.00501789	      3.31599387	    -20.97615968	      3.40468921	      0.28075727	      0.00368718	     -0.29758878	     88.78184433	    158.23968448	     31.84577464	    -17.13168238	      2.14064205	     37.17449921	    -88.78184433	   -158.23968448	    -31.84577464	      5.78624822	     -3.02531678	     -1.14902228	     41.84458281	     40.53626900	     -5.32438734	      2.94225714	     -0.76144259	     17.33742898	    -41.84458281	    -40.53626900	      5.32438734	     -0.62536283	      0.55394101	     -0.70863580	      0.00000000	      0.00000000	      0.00000000	      0.00000000	      0.00000000	      0.00000000	      0.00000000	      0.00000000	      0.00000000	      0.00000000	      0.00000000	      0.00000000	      0.00000000	      0.00000000	      0.00000000	      0.00000000	      0.00000000	      0.00000000	      0.00000000	      0.00000000	      0.00000000	      0.00000000	      0.00000000	      0.00000000	      0.00000000	      0.00000000	      0.00000000	      0.00000000	      0.00000000	      0.00000000	      0.00000000	      0.00000000	      0.00000000	      0.00000000	      0.00000000	      0.00000000	      0.00000000	      0.00000000	      0.00000000	      0.00000000	      0.00000000	      0.00000000	      0.00000000	      0.00000000	      0.00000000	      0.00000000	      0.00000000	      0.00000000	     16.91917049	     28.59195201	      0.00000000	      9.64177285	      8.66489075	     96.63240542	      0.00000000	      0.00000000	      0.00000001	      0.00000000	    103.36618800	    -37.62220000	      0.00000000
      0.48723055	      7.60501669	      5.70506917	      6.10732434	      2.67660080	      3.19805395	      3.21683118	      8.40257629	      4.59204570	      7.88703476	      7.23918638	      1.61934194	      5.65268849	      4.16832289	      2.93902970	      2.47102817	      4.01861592	      4.61992368	      2.25368169	      1.68148256	      3.68142286	      5.59464327	      4.17679104	     22.71888920	     13.04701234	      3.65129443	      2.86583901	      4.13613577	     13.80136465	     12.12378545	     12.29519534	     16.11998300	      3.13041835	      1.63866390	      9.02569759	     12.45687333	      2.80716319	      2.50081233	     14.62709022	      3.47587482	      7.04480604	     10.83661063	      7.91307482	      2.12515316	      7.60501669	      5.70506917	      6.10732434	      2.67660080	      3.19805395	      3.21683118	      8.82841684	      4.11380895	      7.75207850	      7.26503750	      1.52979367	      5.65268849	      4.16832289	      2.93902970	      2.47102817	      4.01861592	      4.11628964	      2.25368169	      1.56918968	      3.68142286	      5.59464327	      4.17679104	     22.71888920	     13.04701234	      3.65129443	      2.86583901	      4.13613577	     10.76137572	      6.63947752	      7.61705249	      8.19008887	     14.16208740	      6.57594961	     31.43641755	     42.49608909	      2.77470525	      2.94877165	      8.52267695	      4.37655791	     12.55001904	      2.01832013	      5.32611036	      1.69181079	     25.17310469	     25.17310469	      9.06543606	      9.06543606	     26.86338695	     26.86338695	      2.76307435	     50.99597937	     -9.56042239	      5.21997485	     -0.02578839	      1.48581788	     -2.76307435	    -50.99597937	      9.56042239	     -1.74637766	      0.02558040	     -0.48301696	     -3.31599387	     20.97615968	     -3.40468921	      0.94473225	     -0.02138609	     -1.00501789	      3.31599387	    -20.97615968	      3.40468921	      0.28075727	      0.00368718	     -0.29758878	     90.50881685	    159.77585562	     31.82452094	    -17.15836014	      2.17903098	     37.90510926	    -90.50881685	   -159.77585562	    -31.82452094	      5.83018828	     -3.07508919	     -1.18914732	     40.68399098	     39.30060841	     -5.06566615	      2.81422450	     -0.74185845	     16.85687068	    -40.68399098	    -39.30060841	      5.06566615	     -0.60520762	      0.53908628	     -0.68870039	      0.00000000	      0.00000000	      0.00000000	      0.00000000	      0.00000000	      0.00000000	      0.00000000	      0.00000000	      0.00000000	      0.00000000	      0.00000000	      0.00000000	      0.00000000	      0.00000000	      0.00000000	      0.00000000	      0.00000000	      0.00000000	      0.00000000	      0.00000000	      0.00000000	      0.00000000	      0.00000000	      0.00000000	      0.00000000	      0.00000000	      0.00000000	      0.00000000	      0.00000000	      0.00000000	      0.00000000	      0.00000000	      0.00000000	      0.00000000	      0.00000000	      0.00000000	      0.00000000	      0.00000000	      0.00000000	      0.00000000	      0.00000000	      0.00000000	      0.00000000	      0.00000000	      0.00000000	      0.00000000	      0.00000000	      0.00000000	     17.19532145	     29.19988909	      0.00000000	      9.84062692	      8.67486542	     96.68533752	      0.00000000	      0.00000000	      0.00000001	      0.00000000	    103.36618800	    -37.62220000	      0.00000000
